<svg version="1.1" id="Layer_1" xmlns="http://www.w3.org/2000/svg" xmlns:xlink="http://www.w3.org/1999/xlink" x="0px" y="0px"
	 width="100%" viewBox="0 0 1024 1024" enable-background="new 0 0 1024 1024" xml:space="preserve">
<path fill="#000000" opacity="1.000000" stroke="none" 
	d="
M743.337830,393.000061 
	C743.337463,469.831268 743.275391,546.162537 743.389832,622.493530 
	C743.411377,636.893799 737.919800,647.959045 725.546631,655.439758 
	C697.320862,672.504761 669.110962,689.596436 640.828247,706.566711 
	C604.120605,728.592224 567.314514,750.453735 530.622559,772.505249 
	C517.600525,780.331360 504.720917,781.965271 491.105591,773.817444 
	C468.664825,760.388000 446.000275,747.333069 423.474182,734.045532 
	C388.751343,713.563538 354.111115,692.941040 319.331482,672.556152 
	C310.948730,667.643005 306.707092,660.738342 307.737854,651.164978 
	C308.754181,641.726013 313.183319,634.491089 322.848846,631.433716 
	C328.677490,629.590088 334.011139,630.835144 339.094330,633.815491 
	C360.794250,646.538452 382.443268,659.348755 404.189209,671.992493 
	C437.888245,691.585999 471.685120,711.011658 505.343170,730.675049 
	C509.420319,733.057007 512.616577,731.983643 515.909363,729.783875 
	C530.749817,719.869446 546.488281,711.464050 561.834473,702.402832 
	C605.299805,676.738708 648.273865,650.264709 691.457275,624.135803 
	C698.538330,619.851257 701.918457,615.051392 701.850220,606.181213 
	C701.408020,548.686340 701.611816,491.186523 701.605042,433.688324 
	C701.604309,427.358521 701.660461,421.028229 701.597168,414.699097 
	C701.540710,409.048584 700.182983,408.181519 695.458679,410.920197 
	C674.131958,423.283356 652.874268,435.765594 631.531494,448.100800 
	C597.497070,467.771240 563.454224,487.427948 529.330566,506.942871 
	C517.978577,513.434937 506.456512,513.054260 495.143463,506.503143 
	C448.722870,479.622162 402.304321,452.737701 355.880707,425.861969 
	C348.527222,421.604919 341.178284,417.338715 333.777710,413.164642 
	C327.754089,409.767120 326.344879,410.654602 326.340759,417.729034 
	C326.328278,439.228394 326.305939,460.727814 326.356354,482.227051 
	C326.376892,490.976593 322.947815,497.803589 315.223206,502.036255 
	C307.389343,506.328888 299.393829,506.672729 291.458649,502.022858 
	C284.523529,497.959015 281.811340,491.356262 281.771301,483.935760 
	C281.572723,447.104675 281.541779,410.270844 281.783844,373.440186 
	C281.869263,360.443237 287.218658,350.450439 299.156830,343.620758 
	C345.133087,317.318359 390.846832,290.556885 436.643860,263.941498 
	C456.085968,252.642502 475.522888,241.333847 494.903137,229.929337 
	C506.761078,222.951401 518.208740,222.079346 530.571472,229.494537 
	C559.856262,247.059601 589.521179,263.990417 619.009583,281.216675 
	C653.243042,301.214905 687.309265,321.505066 721.738586,341.159607 
	C736.552490,349.616394 744.255920,361.320435 743.369568,378.504639 
	C743.129639,383.157959 743.335876,387.834290 743.337830,393.000061 
M387.411163,345.975708 
	C375.363556,353.454498 362.603943,359.811737 350.823090,368.263916 
	C353.615082,371.459167 356.618683,372.939484 359.479370,374.596283 
	C367.547089,379.268738 375.638947,383.899597 383.717285,388.553741 
	C424.254761,411.908600 464.860779,435.146301 505.248779,458.756897 
	C510.991455,462.114014 515.480957,461.905823 520.888367,458.690552 
	C535.480957,450.013702 550.277771,441.681122 564.952393,433.141113 
	C599.483643,413.045258 633.722839,392.443634 668.816406,373.322876 
	C675.751587,369.544281 675.807068,367.520020 669.096802,363.611786 
	C649.672302,352.298615 630.172363,341.115051 610.763367,329.775452 
	C580.720154,312.222870 550.675903,294.670441 520.763794,276.896332 
	C515.648315,273.856659 511.450500,274.042725 506.430115,276.968018 
	C467.016815,299.933655 427.501740,322.724701 387.411163,345.975708 
z"/>
<path fill="#000000" opacity="1.000000" stroke="none" 
	d="
M416.642456,611.675049 
	C411.311737,615.984741 406.334198,620.168152 401.185089,624.128540 
	C390.049377,632.693481 374.333923,628.465332 370.345154,615.969727 
	C369.771271,614.172058 369.662964,612.387329 369.661591,610.556458 
	C369.656372,603.558228 369.674255,596.559875 369.654694,589.561707 
	C369.632019,581.450684 369.565155,581.393066 361.673645,581.392578 
	C323.683136,581.390015 285.692627,581.403748 247.702133,581.377014 
	C238.491150,581.370544 230.544342,576.106018 227.822250,567.471375 
	C223.063019,552.374695 230.532944,537.833923 249.433960,537.852356 
	C281.757965,537.883911 314.082062,537.875916 346.406097,537.884155 
	C351.737976,537.885498 357.069916,537.899658 362.401733,537.881531 
	C369.251617,537.858215 369.436279,537.512817 369.710114,530.408997 
	C369.972290,523.608032 369.130096,516.783997 370.493683,509.999329 
	C373.220276,496.432739 386.227081,491.211914 397.455933,499.583038 
	C405.995575,505.949341 414.167084,512.810669 422.479858,519.479797 
	C434.432373,529.069031 446.420197,538.615601 458.282959,548.314941 
	C464.746857,553.600037 466.602661,560.443787 464.376678,568.490723 
	C463.434998,571.894897 461.262024,574.278442 458.663116,576.452698 
	C444.736481,588.103882 430.830780,599.780090 416.642456,611.675049 
z"/>
<path fill="#000000" opacity="1.000000" stroke="none" 
	d="
M497.613708,619.325378 
	C491.246216,612.651306 489.922760,604.784241 492.362701,596.811707 
	C496.611572,582.928589 511.232330,577.918762 523.312988,586.099426 
	C532.718628,592.468689 540.294861,601.037720 548.415405,608.920410 
	C553.167480,613.533325 553.638306,613.546448 557.383179,608.204590 
	C580.708252,574.932312 604.048828,541.670715 627.320679,508.361237 
	C631.033020,503.047729 635.176697,498.302185 641.697327,496.654907 
	C652.755127,493.861450 664.693176,501.936432 667.366943,513.341309 
	C669.035034,520.456421 667.099365,526.411987 663.096619,532.094666 
	C640.265869,564.507568 617.447266,596.929016 594.645325,629.362305 
	C588.610229,637.946533 582.689392,646.611206 576.644470,655.188477 
	C566.307556,669.855713 552.610046,671.508179 539.440552,659.273865 
	C525.404724,646.234741 511.713684,632.824524 497.613708,619.325378 
z"/>
</svg>