<?xml version="1.0" standalone="no"?>
<!DOCTYPE svg PUBLIC "-//W3C//DTD SVG 20010904//EN"
 "http://www.w3.org/TR/2001/REC-SVG-20010904/DTD/svg10.dtd">
<svg version="1.0" xmlns="http://www.w3.org/2000/svg"
 width="786.000000pt" height="238.000000pt" viewBox="0 0 786.000000 238.000000"
 preserveAspectRatio="xMidYMid meet">
<metadata>
Created by potrace 1.16, written by Peter Selinger 2001-2019
</metadata>
<g transform="translate(0.000000,238.000000) scale(0.100000,-0.100000)"
fill="#000000" stroke="none">
<path d="M1400 2223 c-30 -11 -360 -178 -564 -286 -186 -99 -210 -114 -223
-145 -11 -27 -13 -79 -11 -244 3 -207 3 -210 27 -229 31 -25 75 -24 101 3 18
20 20 35 20 180 0 87 2 158 4 158 6 0 301 -164 470 -262 169 -98 179 -99 297
-36 46 25 167 90 269 145 102 55 209 112 238 127 l52 26 0 -372 0 -373 -53
-35 c-245 -162 -585 -360 -618 -360 -7 0 -67 31 -133 68 -262 149 -428 233
-458 234 -58 2 -90 -75 -50 -120 9 -11 73 -49 142 -85 69 -36 202 -106 295
-156 201 -108 213 -110 325 -53 234 118 648 383 680 435 20 31 20 49 18 472
-3 513 -1 498 -98 548 -30 15 -93 49 -140 74 -47 26 -116 63 -155 83 -38 20
-92 49 -118 63 -123 69 -254 135 -277 140 -14 3 -32 3 -40 0z m570 -442 c0 -4
-71 -45 -157 -91 -87 -46 -178 -96 -203 -110 -25 -15 -82 -46 -127 -69 l-82
-43 -193 110 c-106 60 -231 130 -277 155 l-83 45 58 30 c33 17 160 82 284 145
l225 114 277 -140 c153 -77 278 -143 278 -146z"/>
<path d="M5687 1816 c-67 -18 -97 -43 -129 -106 -24 -45 -28 -66 -28 -132 l0
-78 -65 0 -65 0 0 -95 0 -95 65 0 65 0 2 -307 3 -308 100 0 100 0 3 308 2 307
95 0 95 0 0 95 0 95 -95 0 -95 0 0 54 c0 83 19 101 112 103 l73 2 3 79 3 79
-38 7 c-60 9 -154 6 -206 -8z"/>
<path d="M5110 1620 c0 -104 -2 -190 -5 -190 -2 0 -24 13 -47 30 -52 36 -157
64 -207 55 -101 -17 -165 -48 -221 -104 -110 -111 -152 -271 -116 -442 26
-123 85 -204 188 -260 58 -32 69 -34 153 -34 80 0 97 3 147 29 32 16 65 37 74
48 25 27 32 22 36 -19 l3 -38 95 0 95 0 3 558 2 557 -100 0 -100 0 0 -190z
m-125 -289 c100 -45 146 -173 114 -320 -20 -97 -102 -171 -187 -171 -54 0
-123 46 -159 107 -25 44 -28 57 -28 143 0 85 3 100 27 140 34 58 67 88 115
105 51 19 70 18 118 -4z"/>
<path d="M2730 1256 c0 -454 2 -545 14 -555 9 -8 47 -11 107 -9 l94 3 9 193 9
192 116 0 c199 0 333 43 397 127 81 106 103 263 51 375 -33 74 -105 150 -166
176 -76 33 -160 42 -403 42 l-228 0 0 -544z m533 326 c53 -33 70 -72 65 -144
-9 -124 -94 -173 -285 -166 l-78 3 -3 168 -2 169 132 -4 c119 -3 137 -6 171
-26z"/>
<path d="M3910 1502 c-94 -27 -138 -53 -198 -116 -120 -127 -153 -314 -86
-482 88 -218 353 -304 576 -187 74 38 143 107 173 170 80 168 48 385 -74 510
-92 96 -261 141 -391 105z m217 -204 c85 -79 104 -254 39 -357 -71 -112 -186
-133 -280 -50 -58 52 -81 119 -74 223 6 85 32 141 85 185 67 56 170 55 230 -1z"/>
<path d="M5985 1478 c4 -13 20 -53 36 -90 16 -36 29 -69 29 -72 0 -3 20 -51
44 -108 24 -57 69 -166 101 -242 32 -77 71 -167 86 -200 35 -73 36 -93 7 -136
-37 -53 -81 -72 -160 -67 l-68 4 0 -88 c0 -56 4 -90 12 -95 6 -4 50 -7 97 -7
200 0 287 83 392 376 66 186 259 737 259 742 0 3 -49 5 -108 5 l-109 0 -32
-107 c-18 -60 -49 -164 -70 -233 -21 -69 -44 -149 -52 -177 -7 -29 -16 -53
-21 -53 -4 0 -8 1 -8 3 0 3 -65 187 -109 307 -17 47 -45 123 -64 170 l-33 85
-118 3 -118 3 7 -23z"/>
<path d="M1888 1368 c-8 -7 -26 -29 -40 -48 -13 -19 -71 -98 -128 -175 -57
-77 -104 -141 -106 -143 -1 -2 -31 26 -66 62 -52 54 -70 66 -95 66 -51 0 -83
-45 -64 -91 6 -13 52 -68 104 -121 80 -84 98 -98 125 -98 39 0 32 -8 221 250
120 164 151 212 151 238 0 57 -61 93 -102 60z"/>
<path d="M927 1332 c-10 -11 -17 -40 -19 -82 l-3 -65 -223 -5 c-220 -5 -224
-5 -243 -29 -24 -29 -24 -53 0 -82 19 -24 23 -24 243 -29 l223 -5 3 -72 c2
-61 6 -74 23 -84 30 -16 62 -4 121 44 29 23 69 54 88 69 107 81 125 122 73
169 -44 40 -249 189 -260 189 -5 0 -17 -8 -26 -18z"/>
</g>
</svg>
